General                          : ChattChitto RG - Movies Release
==========
Complete name                    : The Final Destination 2009 3D BDRip.MP4
Format                           : MPEG-4
Format profile                   : Base Media
Codec ID                         : isom
File size                        : 1.70 GiB
Duration                         : 1h 21mn
Overall bit rate                 : 2 969 Kbps
Encoded date                     : UTC 2010-01-20 03:16:02

Video
==========
ID                               : 1
Format                           : AVC
Format/Info                      : Advanced Video Codec
Format profile                   : High@L3.1
Format settings, CABAC           : Yes
Format settings, ReFrames        : 3 frames
Codec ID                         : avc1
Codec ID/Info                    : Advanced Video Coding
Duration                         : 1h 21mn
Bit rate mode                    : Variable
Bit rate                         : 2 600 Kbps
Maximum bit rate                 : 16.2 Mbps
Width                            : 1 280 pixels
Height                           : 688 pixels
Display aspect ratio             : 1.860
Frame rate mode                  : Constant
Frame rate                       : 23.976 fps
Resolution                       : 8 bits
Colorimetry                      : 4:2:0
Scan type                        : Progressive
Bits/(Pixel*Frame)               : 0.123
Stream size                      : 1.48 GiB (87%)
Writing library                  : x264 
Encoded date                     : UTC 2010-01-20 03:03:25

Audio
==========
ID                               : 2
Format                           : AAC
Format/Info                      : Advanced Audio Codec
Format version                   : Version 4
Format profile                   : LC
Format settings, SBR             : No
Codec ID                         : 40
Duration                         : 1h 21mn
Bit rate mode                    : Variable
Bit rate                         : 368 Kbps
Maximum bit rate                 : 439 Kbps
Channel(s)                       : 6 channels
Channel positions                : Front: L C R, Rear: L R, LFE
Sampling rate                    : 48.0 KHz
Stream size                      : 215 MiB (12%)
Encoded date                     : UTC 2010-01-20 03:16:56

Subtitles                        : English/Spanish [.srt]



3D Screen Shots:
=================
http://bayimg.com/image/hajcdaacn.jpg
http://bayimg.com/image/hajcbaacn.jpg



IMDB Link: http://www.imdb.com/title/tt1144884/



Plot:
======
After a teen's premonition of a deadly race-car crash helps saves the lives of his peers, Death sets out to collect those who evaded their end.


Source
==========
The Final Destination 2009 3D Blue-Ray 1080p VC-1/DTS-HD Master Audio 5.1 [16.3 Gb]

Notes
==========
ChattChitto RG Encourages Burning this Film with ConvertXtoDVD.
Enhanced for your viewing pleasure ;)